<?xml version="1.0" encoding="utf-8"?>
<!-- Generator: Adobe Illustrator 19.0.0, SVG Export Plug-In . SVG Version: 6.00 Build 0)  -->
<svg version="1.1" id="katman_1" xmlns="http://www.w3.org/2000/svg" xmlns:xlink="http://www.w3.org/1999/xlink" x="0px" y="0px"
	 viewBox="0 0 48 48" style="enable-background:new 0 0 48 48;" xml:space="preserve">
<style type="text/css">
	.st0{display:none;}
	.st1{display:inline;}
	.st2{fill-rule:evenodd;clip-rule:evenodd;fill:url(#XMLID_2_);}
	.st3{fill-rule:evenodd;clip-rule:evenodd;fill:url(#XMLID_3_);}
	.st4{fill-rule:evenodd;clip-rule:evenodd;fill:url(#XMLID_4_);}
	.st5{fill-rule:evenodd;clip-rule:evenodd;fill:url(#XMLID_5_);}
	.st6{fill-rule:evenodd;clip-rule:evenodd;fill:url(#XMLID_6_);}
	.st7{fill-rule:evenodd;clip-rule:evenodd;fill:url(#XMLID_7_);}
	.st8{display:inline;fill:#706B68;}
	.st9{font-family:'RawengulkBold';}
	.st10{font-size:9.9293px;}
	.st11{fill-rule:evenodd;clip-rule:evenodd;fill:url(#XMLID_8_);}
	.st12{fill-rule:evenodd;clip-rule:evenodd;fill:url(#XMLID_9_);}
	.st13{fill-rule:evenodd;clip-rule:evenodd;fill:url(#XMLID_10_);}
	.st14{fill-rule:evenodd;clip-rule:evenodd;fill:url(#XMLID_11_);}
	.st15{clip-path:url(#XMLID_12_);fill-rule:evenodd;clip-rule:evenodd;fill:url(#XMLID_13_);}
	.st16{opacity:0.48;clip-path:url(#XMLID_14_);fill-rule:evenodd;clip-rule:evenodd;fill:url(#XMLID_15_);}
	.st17{fill-rule:evenodd;clip-rule:evenodd;fill:url(#XMLID_16_);}
	.st18{fill-rule:evenodd;clip-rule:evenodd;fill:url(#XMLID_17_);}
	.st19{fill-rule:evenodd;clip-rule:evenodd;fill:url(#XMLID_18_);}
	.st20{fill-rule:evenodd;clip-rule:evenodd;fill:url(#XMLID_19_);}
	.st21{fill-rule:evenodd;clip-rule:evenodd;fill:url(#XMLID_20_);}
	.st22{fill-rule:evenodd;clip-rule:evenodd;fill:url(#XMLID_21_);}
	.st23{fill-rule:evenodd;clip-rule:evenodd;fill:url(#XMLID_22_);}
	.st24{fill-rule:evenodd;clip-rule:evenodd;fill:url(#XMLID_23_);}
	.st25{fill-rule:evenodd;clip-rule:evenodd;fill:url(#XMLID_24_);}
	.st26{fill-rule:evenodd;clip-rule:evenodd;fill:url(#XMLID_25_);}
</style>
<g id="XMLID_61_">
	<g id="XMLID_84_" class="st0">
		<g id="XMLID_271_" class="st1">
			<linearGradient id="XMLID_2_" gradientUnits="userSpaceOnUse" x1="-99.2861" y1="34.0729" x2="-99.2861" y2="6.4439">
				<stop  offset="0" style="stop-color:#9ECEA0"/>
				<stop  offset="0.2834" style="stop-color:#71A971"/>
				<stop  offset="0.6086" style="stop-color:#428A4A"/>
				<stop  offset="0.8581" style="stop-color:#1E7A39"/>
				<stop  offset="1" style="stop-color:#067433"/>
			</linearGradient>
			<path id="XMLID_268_" class="st2" d="M-115.3,24.2c3.9,7.2,11.5,10.6,18.4,9.8c7.6-0.8,12.7-5.5,16.3-11.5
				c-12.7,1.5-22.2,0.1-32.5-10.6c-2-2.1-3.7-5.8-3.7-5.8S-120.3,15-115.3,24.2z"/>
			<linearGradient id="XMLID_3_" gradientUnits="userSpaceOnUse" x1="-119.68" y1="23.8818" x2="-76.4839" y2="23.8818">
				<stop  offset="0" style="stop-color:#E7267A"/>
				<stop  offset="1" style="stop-color:#9E1460"/>
			</linearGradient>
			<path id="XMLID_269_" class="st3" d="M-118.4,26.6c3.7,9.6,10.9,14,19.1,14.8c8.4,0.8,17.2-1.8,22.8-8.1
				c-14.1-0.5-24.8-1.7-35-14.7c-4.6-5.9-5.3-12.5-5.3-12.5S-122,17.2-118.4,26.6z"/>
			
				<linearGradient id="XMLID_4_" gradientUnits="userSpaceOnUse" x1="-138.1578" y1="23.5272" x2="-108.0047" y2="23.5272" gradientTransform="matrix(0.9883 -0.1528 0.1528 0.9883 17.0805 -28.4747)">
				<stop  offset="0" style="stop-color:#F39323"/>
				<stop  offset="1" style="stop-color:#F9EA32"/>
			</linearGradient>
			<path id="XMLID_208_" class="st4" d="M-112.3,19.6c4,3.9,10.4,4.7,15.6,2.9c5.2-1.8,9.4-6.5,10.5-11.9c-5.2,2.4-10.7,3-16.3,1.7
				c-2.7-0.6-5-1.3-8-2.7c-1.7-0.8-6.3-3.5-6.3-3.5S-117.9,14.1-112.3,19.6z"/>
		</g>
		<g id="XMLID_78_" class="st1">
			<text id="XMLID_64_" transform="matrix(1 0 0 1 -117.6096 55.0555)" class="st9 st10" style="fill:#706B68;">LOREM</text>
			
				<text id="XMLID_65_" transform="matrix(1 0 0 1 -117.1506 61.4568)" style="fill:#706B68; font-family:'RawengulkDemibold'; font-size:4.9794px;">Dolor Sit Amet</text>
		</g>
	</g>
	<g id="XMLID_83_">
		<g id="XMLID_279_">
			
				<linearGradient id="XMLID_5_" gradientUnits="userSpaceOnUse" x1="310.7803" y1="107.8667" x2="311.7375" y2="144.4788" gradientTransform="matrix(0.622 0.783 -0.783 0.622 -84.8631 -288.3455)">
				<stop  offset="0" style="stop-color:#9ECEA0"/>
				<stop  offset="0.2834" style="stop-color:#71A971"/>
				<stop  offset="0.6086" style="stop-color:#428A4A"/>
				<stop  offset="0.8581" style="stop-color:#1E7A39"/>
				<stop  offset="1" style="stop-color:#067433"/>
			</linearGradient>
			<path id="XMLID_278_" class="st5" d="M29.1,20.6c-0.9-0.4-1.9-0.5-2.8-0.6c-5.8-0.6-11.6-0.4-17.3,0.7c-1.3,0.2-2.6,0.5-3.8,1.1
				c-1.2,0.6-2.2,1.6-2.7,2.8c-0.7,1.8,0,3.9,0.9,5.7c1.7,3.7,4,7.2,6.8,10.2c1.5,1.7,3.4,3.3,5.7,3.2c1.9-0.1,3.5-1.4,4.9-2.7
				c3.7-3.5,7-7.6,9.6-12.1c0.6-0.9,1.1-1.9,1.3-3C31.9,24.1,30.9,21.5,29.1,20.6z"/>
			
				<linearGradient id="XMLID_6_" gradientUnits="userSpaceOnUse" x1="283.586" y1="198.9683" x2="322.2321" y2="186.525" gradientTransform="matrix(0.7656 0.6434 -0.6434 0.7656 -70.0813 -313.5981)">
				<stop  offset="0" style="stop-color:#E7267A"/>
				<stop  offset="1" style="stop-color:#9E1460"/>
			</linearGradient>
			<path id="XMLID_281_" class="st6" d="M45,20.4c-1-1.5-2.6-2.4-4.2-3.2c-3.8-1.8-7.9-3-12-3.7c-1.9-0.3-3.8-0.2-5.8,0.1
				c-2.6,0.4-4.2,1.9-4,3.8c0.5,6.3,5.8,15.9,9.6,19.7c1.4,1.4,3.1,2.8,5.3,2.2c1.8-0.5,4.7-3.4,5.9-4.6c2.2-2.3,4.8-5.4,5.7-8.4
				C46.1,24.3,46.1,22.1,45,20.4z"/>
			
				<linearGradient id="XMLID_7_" gradientUnits="userSpaceOnUse" x1="292.0249" y1="95.4407" x2="326.6525" y2="117.6437" gradientTransform="matrix(0.622 0.783 -0.783 0.622 -84.8631 -288.3455)">
				<stop  offset="0" style="stop-color:#F9EA32"/>
				<stop  offset="1" style="stop-color:#F39323"/>
			</linearGradient>
			<path id="XMLID_282_" class="st7" d="M14.3,6.6C12.1,7.1,9.7,8,8.6,9.9C7.4,12,8,14.6,8.8,16.8c2.4,6.6,6.5,12.6,11.8,17.2
				c1.2,1.1,2.7,2.1,4.3,1.9c1.6-0.2,2.8-1.5,3.8-2.7c3.5-4.4,6.5-9.3,8.8-14.5c1-2.2,1.8-4.6,1.2-6.9c-0.5-1.9-2-3.5-3.7-4.5
				C29,4,20.7,5,14.3,6.6z"/>
		</g>
		<g id="XMLID_76_" class="st0">
			<text id="XMLID_67_" transform="matrix(1 0 0 1 6.8777 55.0555)" class="st8 st9 st10">LOREM</text>
			
				<text id="XMLID_66_" transform="matrix(1 0 0 1 7.3372 61.4568)" class="st8" style="font-family:'RawengulkDemibold'; font-size:4.9794px;">Dolor Sit Amet</text>
		</g>
	</g>
	<g id="XMLID_80_" class="st0">
		<g id="XMLID_204_" class="st1">
			
				<linearGradient id="XMLID_8_" gradientUnits="userSpaceOnUse" x1="-23.9414" y1="90.4656" x2="-50.8902" y2="123.403" gradientTransform="matrix(0.9949 -0.1009 0.1009 0.9949 -6.3462 2.0305)">
				<stop  offset="0" style="stop-color:#F9EA32"/>
				<stop  offset="1" style="stop-color:#F39323"/>
			</linearGradient>
			<circle id="XMLID_94_" class="st11" cx="-28.9" cy="106.4" r="15.1"/>
			
				<linearGradient id="XMLID_9_" gradientUnits="userSpaceOnUse" x1="-37.2364" y1="115.4561" x2="-83.1987" y2="91.8984" gradientTransform="matrix(0.9949 -0.1009 0.1009 0.9949 -6.3462 2.0305)">
				<stop  offset="0" style="stop-color:#E7267A"/>
				<stop  offset="1" style="stop-color:#9E1460"/>
			</linearGradient>
			<circle id="XMLID_96_" class="st12" cx="-45.8" cy="115.2" r="15.6"/>
			
				<linearGradient id="XMLID_10_" gradientUnits="userSpaceOnUse" x1="85.7509" y1="11.0641" x2="50.7064" y2="55.4243" gradientTransform="matrix(-0.2432 0.97 -0.97 -0.2432 8.4477 54.1657)">
				<stop  offset="0" style="stop-color:#9ECEA0"/>
				<stop  offset="0.2834" style="stop-color:#71A971"/>
				<stop  offset="0.6086" style="stop-color:#428A4A"/>
				<stop  offset="0.8581" style="stop-color:#1E7A39"/>
				<stop  offset="1" style="stop-color:#067433"/>
			</linearGradient>
			<circle id="XMLID_97_" class="st13" cx="-31.3" cy="124.1" r="12.2"/>
			
				<linearGradient id="XMLID_11_" gradientUnits="userSpaceOnUse" x1="44.416" y1="48.3493" x2="57.5577" y2="38.3682" gradientTransform="matrix(-0.2432 0.97 -0.97 -0.2432 8.4477 54.1657)">
				<stop  offset="0" style="stop-color:#F9EA32"/>
				<stop  offset="0.1586" style="stop-color:#F0E634"/>
				<stop  offset="0.4375" style="stop-color:#D8DC39"/>
				<stop  offset="0.8012" style="stop-color:#ACCB40"/>
				<stop  offset="1" style="stop-color:#8EC044"/>
			</linearGradient>
			<circle id="XMLID_98_" class="st14" cx="-45.5" cy="94.2" r="3.4"/>
			<g id="XMLID_100_">
				<defs>
					<circle id="XMLID_95_" cx="-28.9" cy="106.4" r="15.1"/>
				</defs>
				<clipPath id="XMLID_12_">
					<use xlink:href="#XMLID_95_"  style="overflow:visible;"/>
				</clipPath>
				
					<linearGradient id="XMLID_13_" gradientUnits="userSpaceOnUse" x1="-9.7213" y1="83.9533" x2="-36.6701" y2="116.8907" gradientTransform="matrix(0.9949 -0.1009 0.1009 0.9949 -6.3462 2.0305)">
					<stop  offset="0" style="stop-color:#F9EA32"/>
					<stop  offset="1" style="stop-color:#F39323"/>
				</linearGradient>
				<circle id="XMLID_99_" class="st15" cx="-15.4" cy="98.4" r="15.1"/>
			</g>
			<g id="XMLID_103_">
				<defs>
					<circle id="XMLID_102_" cx="-45.8" cy="115.2" r="15.6"/>
				</defs>
				<clipPath id="XMLID_14_">
					<use xlink:href="#XMLID_102_"  style="overflow:visible;"/>
				</clipPath>
				<linearGradient id="XMLID_15_" gradientUnits="userSpaceOnUse" x1="-66.6638" y1="124.985" x2="-46.8333" y2="108.1223">
					<stop  offset="0" style="stop-color:#E7267A"/>
					<stop  offset="1" style="stop-color:#9E1460"/>
				</linearGradient>
				<circle id="XMLID_101_" class="st16" cx="-62.3" cy="121.2" r="18.3"/>
			</g>
		</g>
		<g id="XMLID_74_" class="st1">
			<text id="XMLID_73_" transform="matrix(1 0 0 1 -55.3454 150.1189)" class="st9 st10" style="fill:#706B68;">LOREM</text>
			
				<text id="XMLID_72_" transform="matrix(1 0 0 1 -54.8855 156.5213)" style="fill:#706B68; font-family:'RawengulkDemibold'; font-size:4.9794px;">Dolor Sit Amet</text>
		</g>
	</g>
	<g id="XMLID_82_" class="st0">
		<g id="XMLID_273_" class="st1">
			
				<linearGradient id="XMLID_16_" gradientUnits="userSpaceOnUse" x1="-54.164" y1="22.9658" x2="-21.8002" y2="22.9658" gradientTransform="matrix(0.9999 1.428888e-002 -1.428888e-002 0.9999 -2.267 0.2802)">
				<stop  offset="0" style="stop-color:#F39323"/>
				<stop  offset="1" style="stop-color:#F9EA32"/>
			</linearGradient>
			<path id="XMLID_280_" class="st17" d="M-49.5,27.8C-49.3,17.3-40.7,9-30.3,9.2c2.1,0,4.2,0.4,6.1,1.1c-3.4-3.6-8.1-5.8-13.4-5.9
				C-48,4.2-56.6,12.6-56.8,23c-0.1,8.3,5.1,15.4,12.5,18C-47.6,37.6-49.5,32.9-49.5,27.8z"/>
			<linearGradient id="XMLID_17_" gradientUnits="userSpaceOnUse" x1="-54.6265" y1="21.6358" x2="-25.2559" y2="35.6474">
				<stop  offset="0" style="stop-color:#9ECEA0"/>
				<stop  offset="0.2834" style="stop-color:#71A971"/>
				<stop  offset="0.6086" style="stop-color:#428A4A"/>
				<stop  offset="0.8581" style="stop-color:#1E7A39"/>
				<stop  offset="1" style="stop-color:#067433"/>
			</linearGradient>
			<path id="XMLID_272_" class="st18" d="M-30.2,32.9c-10,3-20.5-2.7-23.5-12.6c-0.6-2.1-0.9-4.1-0.8-6.2c-2.4,4.3-3.1,9.5-1.6,14.6
				c3,10,13.5,15.6,23.5,12.6c7.9-2.4,13.1-9.5,13.4-17.3C-21.4,28.2-25.3,31.5-30.2,32.9z"/>
			
				<linearGradient id="XMLID_18_" gradientUnits="userSpaceOnUse" x1="170.2867" y1="-390.2229" x2="202.6506" y2="-390.2229" gradientTransform="matrix(-0.7741 0.633 -0.633 -0.7741 -138.1942 -398.1907)">
				<stop  offset="0" style="stop-color:#E7267A"/>
				<stop  offset="1" style="stop-color:#9E1460"/>
			</linearGradient>
			<path id="XMLID_277_" class="st19" d="M-32,12.3c6.6,8.1,5.4,19.9-2.7,26.5c-1.7,1.4-3.5,2.4-5.4,3.1c4.9,0.6,10-0.8,14.1-4.1
				c8.1-6.6,9.3-18.5,2.7-26.5c-5.2-6.4-13.8-8.5-21.1-5.8C-39.8,6.1-35.2,8.4-32,12.3z"/>
		</g>
		<g id="XMLID_77_" class="st1">
			<text id="XMLID_68_" transform="matrix(1 0 0 1 -52.5779 55.0555)" class="st9 st10" style="fill:#706B68;">IPSUM</text>
			
				<text id="XMLID_69_" transform="matrix(1 0 0 1 -54.3811 61.4568)" style="fill:#706B68; font-family:'RawengulkDemibold'; font-size:4.9794px;">Dolor Sit Amet</text>
		</g>
	</g>
	<g id="XMLID_81_" class="st0">
		<g id="XMLID_289_" class="st1">
			
				<linearGradient id="XMLID_19_" gradientUnits="userSpaceOnUse" x1="615.5855" y1="565.147" x2="641.6808" y2="581.8792" gradientTransform="matrix(0.6795 -0.7337 0.7337 0.6795 -944.6337 188.0179)">
				<stop  offset="0" style="stop-color:#F9EA32"/>
				<stop  offset="1" style="stop-color:#F39323"/>
			</linearGradient>
			<path id="XMLID_292_" class="st20" d="M-104.4,101.2c1.6-2.4,4.5-5.8,9.2-5.5c3.4,0.2,6,1.9,6.8,5.2c0.6,2.3,0.1,5.6-0.5,7.9
				c-2,7.6-7.2,9.8-2.7,19.3c1.5,3.2,5.7,5.2,3.3,6.8c-2.3,1.6-8.1-0.1-11.7-3.3C-111.7,120.8-109,108.2-104.4,101.2z"/>
			
				<linearGradient id="XMLID_20_" gradientUnits="userSpaceOnUse" x1="-336.4402" y1="-107.922" x2="-349.4004" y2="-72.0175" gradientTransform="matrix(-0.9217 -0.3878 -0.3878 0.9217 -442.7397 80.4528)">
				<stop  offset="0" style="stop-color:#9ECEA0"/>
				<stop  offset="0.2834" style="stop-color:#71A971"/>
				<stop  offset="0.6086" style="stop-color:#428A4A"/>
				<stop  offset="0.8581" style="stop-color:#1E7A39"/>
				<stop  offset="1" style="stop-color:#067433"/>
			</linearGradient>
			<path id="XMLID_288_" class="st21" d="M-90.7,110.3c1.4-0.7,5.2-1.4,7.8,0.8c2,1.6,2.7,3.7,1.7,6.1c-0.7,1.6-2.4,3.3-3.8,4.4
				c-4.5,3.6-8.5,2.7-10.1,10.2c-0.5,2.5,1.1,5.5-1,5.5c-2,0-4.8-3.6-5.4-7.1C-103.6,118.7-96.2,113-90.7,110.3z"/>
			
				<linearGradient id="XMLID_21_" gradientUnits="userSpaceOnUse" x1="685.1192" y1="527.4503" x2="639.4879" y2="504.0622" gradientTransform="matrix(0.7633 -0.646 0.646 0.7633 -955.687 156.9687)">
				<stop  offset="0" style="stop-color:#E7267A"/>
				<stop  offset="1" style="stop-color:#9E1460"/>
			</linearGradient>
			<path id="XMLID_291_" class="st22" d="M-96.8,137.9c-10.6-0.9-21.1-8.3-25.5-18.1c-3.8-8.5-0.6-22.6,11.6-15.7
				c8.7,4.9,5.7,15.5,12.5,23.1c4.9,5.5,11.8,3.9,10.5,7.5C-88.8,137.7-94.2,138.1-96.8,137.9z"/>
		</g>
		<g id="XMLID_75_" class="st1">
			<text id="XMLID_70_" transform="matrix(1 0 0 1 -116.4358 150.1189)" class="st9 st10" style="fill:#706B68;">IPSUM</text>
			
				<text id="XMLID_71_" transform="matrix(1 0 0 1 -118.2395 156.5213)" style="fill:#706B68; font-family:'RawengulkDemibold'; font-size:4.9794px;">Dolor Sit Amet</text>
		</g>
	</g>
	<g id="XMLID_62_" class="st0">
		<g id="XMLID_287_" class="st1">
			
				<linearGradient id="XMLID_22_" gradientUnits="userSpaceOnUse" x1="-385.3021" y1="15.8725" x2="-383.8901" y2="69.8784" gradientTransform="matrix(-0.9897 0.1432 -0.1432 -0.9897 -340.1943 188.2945)">
				<stop  offset="0" style="stop-color:#9ECEA0"/>
				<stop  offset="0.2834" style="stop-color:#71A971"/>
				<stop  offset="0.6086" style="stop-color:#428A4A"/>
				<stop  offset="0.8581" style="stop-color:#1E7A39"/>
				<stop  offset="1" style="stop-color:#067433"/>
			</linearGradient>
			<path id="XMLID_285_" class="st23" d="M40.3,95.9c2.9,4.9,3.8,11,2.5,16.5c-0.5,2.1-1.2,4-1.7,6.1c-0.5,2.1-0.7,4.2-0.1,6.2
				c-6.9-5.5-11-14.3-11-23.1c0-2.9,0.6-5.9,0.3-8.8c-0.4-4.3-1.8-7.4-1.8-7.4s3.1,1.7,4.6,2.8C35.9,90.3,38.5,92.8,40.3,95.9z"/>
			
				<linearGradient id="XMLID_23_" gradientUnits="userSpaceOnUse" x1="19.2811" y1="118.0308" x2="9.0535" y2="167.5707" gradientTransform="matrix(0.9897 -0.1432 0.1432 0.9897 -14.0164 -31.9868)">
				<stop  offset="0" style="stop-color:#E7267A"/>
				<stop  offset="1" style="stop-color:#9E1460"/>
			</linearGradient>
			<path id="XMLID_283_" class="st24" d="M17.3,123.9c-2.4-3.6-4.1-7.7-4.3-12.1c-0.3-6.4,2.4-12.4,5.1-18.2c2-4.3,4-8.5,6-12.8
				c3.8,5.9,5.1,13.3,3.8,20.1c-0.7,3.7-2.2,7.2-3.5,10.7c-1.3,3.5-2.4,7.2-2.4,10.9c0,1.8,0.3,3.7,0.9,5.4c0.5,1.5,2,3.3,2.5,4.4
				C22.3,130.2,19.5,127.1,17.3,123.9z"/>
			
				<linearGradient id="XMLID_24_" gradientUnits="userSpaceOnUse" x1="3.7006" y1="148.1146" x2="16.6455" y2="148.1146" gradientTransform="matrix(0.9897 -0.1432 0.1432 0.9897 -14.0164 -31.9868)">
				<stop  offset="0" style="stop-color:#F9EA32"/>
				<stop  offset="0.1586" style="stop-color:#F0E634"/>
				<stop  offset="0.4375" style="stop-color:#D8DC39"/>
				<stop  offset="0.8012" style="stop-color:#ACCB40"/>
				<stop  offset="1" style="stop-color:#8EC044"/>
			</linearGradient>
			<path id="XMLID_284_" class="st25" d="M13.7,122.1c-2.9-4.9-3.8-11-2.5-16.5c0.5-2.1,1.2-4,1.7-6.1c0.5-2.1,0.7-4.2,0.1-6.2
				c6.9,5.5,11,14.3,11,23.1c0,2.9-0.6,5.9-0.3,8.8c0.4,4.3,1.8,7.4,1.8,7.4s-3.1-1.7-4.6-2.8C18.1,127.6,15.4,125.2,13.7,122.1z"/>
			
				<linearGradient id="XMLID_25_" gradientUnits="userSpaceOnUse" x1="-383.0352" y1="4.054724e-002" x2="-375.1051" y2="50.7929" gradientTransform="matrix(-0.9897 0.1432 -0.1432 -0.9897 -340.1943 188.2945)">
				<stop  offset="0" style="stop-color:#F9EA32"/>
				<stop  offset="1" style="stop-color:#F39323"/>
			</linearGradient>
			<path id="XMLID_286_" class="st26" d="M36.7,94c2.4,3.6,4.1,7.7,4.3,12.1c0.3,6.4-2.4,12.4-5.1,18.2c-2,4.3-4,8.5-6,12.8
				c-3.8-5.9-5.1-13.3-3.8-20.1c0.7-3.7,2.2-7.2,3.5-10.7c1.3-3.5,2.4-7.2,2.4-10.9c0-1.8-0.3-3.7-0.9-5.4c-0.5-1.5-2-3.3-2.5-4.4
				C31.6,87.7,34.5,90.8,36.7,94z"/>
		</g>
		<g id="XMLID_63_" class="st1">
			<text id="XMLID_79_" transform="matrix(1 0 0 1 10.8172 150.1189)" class="st9 st10" style="fill:#706B68;">IPSUM</text>
			
				<text id="XMLID_85_" transform="matrix(1 0 0 1 9.0139 156.5213)" style="fill:#706B68; font-family:'RawengulkDemibold'; font-size:4.9794px;">Dolor Sit Amet</text>
		</g>
	</g>
</g>
</svg>
